<?xml version="1.0" ?><svg enable-background="new 0 0 515.91 728.5" height="512" id="Layer_1" version="1.1" viewBox="0 0 512.00003 512" width="512" xml:space="preserve" xmlns="http://www.w3.org/2000/svg" xmlns:cc="http://creativecommons.org/ns#" xmlns:dc="http://purl.org/dc/elements/1.1/" xmlns:inkscape="http://www.inkscape.org/namespaces/inkscape" xmlns:rdf="http://www.w3.org/1999/02/22-rdf-syntax-ns#" xmlns:sodipodi="http://sodipodi.sourceforge.net/DTD/sodipodi-0.dtd" xmlns:svg="http://www.w3.org/2000/svg"><defs id="defs7"/><g id="g5193" transform="matrix(1.1111123,0,0,1.1111123,-4098.2471,-2288.3408)"><path d="m 3701.8182,2316.7529 c -4.1887,4e-4 -7.9996,3.8113 -8,8 l 0,164.7273 c 4e-4,4.1887 3.8113,7.9996 8,8 l 74,0 c 4.1887,-4e-4 7.9996,-3.8113 8,-8 l 0,-164.7273 c -4e-4,-4.1887 -3.8113,-7.9996 -8,-8 z" id="path5086" style="font-size:medium;font-style:normal;font-variant:normal;font-weight:normal;font-stretch:normal;text-indent:0;text-align:start;text-decoration:none;line-height:normal;letter-spacing:normal;word-spacing:normal;text-transform:none;direction:ltr;block-progression:tb;writing-mode:lr-tb;text-anchor:start;baseline-shift:baseline;color:#000000;fill:#333333;fill-opacity:1;fill-rule:nonzero;stroke:none;stroke-width:16;marker:none;visibility:visible;display:inline;overflow:visible;enable-background:accumulate;font-family:Sans;-inkscape-font-specification:Sans"/><path d="m 3821.8182,2247.2984 c -4.1887,4e-4 -7.9996,3.8113 -8,8 l 0,234.1818 c 4e-4,4.1887 3.8113,7.9996 8,8 l 74,0 c 4.1887,-4e-4 7.9996,-3.8113 8,-8 l 0,-234.1818 c -4e-4,-4.1887 -3.8113,-7.9996 -8,-8 z" id="path5088" style="font-size:medium;font-style:normal;font-variant:normal;font-weight:normal;font-stretch:normal;text-indent:0;text-align:start;text-decoration:none;line-height:normal;letter-spacing:normal;word-spacing:normal;text-transform:none;direction:ltr;block-progression:tb;writing-mode:lr-tb;text-anchor:start;baseline-shift:baseline;color:#000000;fill:#333333;fill-opacity:1;fill-rule:nonzero;stroke:none;stroke-width:16;marker:none;visibility:visible;display:inline;overflow:visible;enable-background:accumulate;font-family:Sans;-inkscape-font-specification:Sans"/><path d="m 3941.8182,2272.9347 c -4.1887,4e-4 -7.9996,3.8113 -8,8 l 0,208.5455 c 4e-4,4.1887 3.8113,7.9996 8,8 l 74,0 c 4.1887,-4e-4 7.9996,-3.8113 8,-8 l 0,-208.5455 c -4e-4,-4.1887 -3.8113,-7.9996 -8,-8 z" id="path5090" style="font-size:medium;font-style:normal;font-variant:normal;font-weight:normal;font-stretch:normal;text-indent:0;text-align:start;text-decoration:none;line-height:normal;letter-spacing:normal;word-spacing:normal;text-transform:none;direction:ltr;block-progression:tb;writing-mode:lr-tb;text-anchor:start;baseline-shift:baseline;color:#000000;fill:#333333;fill-opacity:1;fill-rule:nonzero;stroke:none;stroke-width:16;marker:none;visibility:visible;display:inline;overflow:visible;enable-background:accumulate;font-family:Sans;-inkscape-font-specification:Sans"/><path d="m 4061.8182,2209.8438 c -4.1887,5e-4 -7.9996,3.8114 -8,8 l 0,271.6364 c 4e-4,4.1887 3.8113,7.9996 8,8 l 74,0 c 4.1887,-4e-4 7.9996,-3.8113 8,-8 l 0,-271.6364 c -4e-4,-4.1886 -3.8113,-7.9995 -8,-8 z" id="path5092" style="font-size:medium;font-style:normal;font-variant:normal;font-weight:normal;font-stretch:normal;text-indent:0;text-align:start;text-decoration:none;line-height:normal;letter-spacing:normal;word-spacing:normal;text-transform:none;direction:ltr;block-progression:tb;writing-mode:lr-tb;text-anchor:start;baseline-shift:baseline;color:#000000;fill:#333333;fill-opacity:1;fill-rule:nonzero;stroke:none;stroke-width:16;marker:none;visibility:visible;display:inline;overflow:visible;enable-background:accumulate;font-family:Sans;-inkscape-font-specification:Sans"/><path d="m 3776.7217,2330.9358 c 0,19.5972 -15.8867,35.4839 -35.4839,35.4839 -19.5972,0 -35.4839,-15.8867 -35.4839,-35.4839 0,-19.5972 15.8867,-35.4839 35.4839,-35.4839 19.5972,0 35.4839,15.8867 35.4839,35.4839 z" id="path5130" style="fill:#00a1f1;fill-opacity:1;fill-rule:nonzero;stroke:none" transform="matrix(-0.501637,-0.86507821,0.86507821,-0.501637,3599.1197,6629.4609)"/><path d="m 3776.7217,2330.9358 c 0,19.5972 -15.8867,35.4839 -35.4839,35.4839 -19.5972,0 -35.4839,-15.8867 -35.4839,-35.4839 0,-19.5972 15.8867,-35.4839 35.4839,-35.4839 19.5972,0 35.4839,15.8867 35.4839,35.4839 z" id="path5130-1" style="fill:#00a1f1;fill-opacity:1;fill-rule:nonzero;stroke:none" transform="matrix(-0.501637,-0.86507821,0.86507821,-0.501637,3719.1197,6558.4742)"/><path d="m 3776.7217,2330.9358 c 0,19.5972 -15.8867,35.4839 -35.4839,35.4839 -19.5972,0 -35.4839,-15.8867 -35.4839,-35.4839 0,-19.5972 15.8867,-35.4839 35.4839,-35.4839 19.5972,0 35.4839,15.8867 35.4839,35.4839 z" id="path5130-15" style="fill:#00a1f1;fill-opacity:1;fill-rule:nonzero;stroke:none" transform="matrix(-0.501637,-0.86507821,0.86507821,-0.501637,3839.1197,6586.1106)"/><path d="m 3776.7217,2330.9358 c 0,19.5972 -15.8867,35.4839 -35.4839,35.4839 -19.5972,0 -35.4839,-15.8867 -35.4839,-35.4839 0,-19.5972 15.8867,-35.4839 35.4839,-35.4839 19.5972,0 35.4839,15.8867 35.4839,35.4839 z" id="path5130-2" style="fill:#00a1f1;fill-opacity:1;fill-rule:nonzero;stroke:none" transform="matrix(-0.501637,-0.86507821,0.86507821,-0.501637,3959.1197,6523.5651)"/><path d="m 3858.7812,2144 a 8.0008,8.0008 0 0 0 -4.3124,1.1875 l -116.4376,69.6875 a 8.0095439,8.0095439 0 1 0 8.2188,13.75 l 116.4375,-69.6875 A 8.0008,8.0008 0 0 0 3858.7812,2144 z" id="path5175" style="font-size:medium;font-style:normal;font-variant:normal;font-weight:normal;font-stretch:normal;text-indent:0;text-align:start;text-decoration:none;line-height:normal;letter-spacing:normal;word-spacing:normal;text-transform:none;direction:ltr;block-progression:tb;writing-mode:lr-tb;text-anchor:start;baseline-shift:baseline;color:#000000;fill:#00a1f1;fill-opacity:1;stroke:none;stroke-width:16;marker:none;visibility:visible;display:inline;overflow:visible;enable-background:accumulate;font-family:Sans;-inkscape-font-specification:Sans"/><path d="m 3860.5625,2144.1562 a 8.0008,8.0008 0 0 0 -1.3437,15.7813 l 116.3437,28.0313 a 8.0040149,8.0040149 0 1 0 3.75,-15.5626 l -116.3437,-28.0312 a 8.0008,8.0008 0 0 0 -2.4063,-0.2188 z" id="path5177" style="font-size:medium;font-style:normal;font-variant:normal;font-weight:normal;font-stretch:normal;text-indent:0;text-align:start;text-decoration:none;line-height:normal;letter-spacing:normal;word-spacing:normal;text-transform:none;direction:ltr;block-progression:tb;writing-mode:lr-tb;text-anchor:start;baseline-shift:baseline;color:#000000;fill:#00a1f1;fill-opacity:1;stroke:none;stroke-width:16;marker:none;visibility:visible;display:inline;overflow:visible;enable-background:accumulate;font-family:Sans;-inkscape-font-specification:Sans"/><path d="m 4097.9688,2109.6562 a 8.0008,8.0008 0 0 0 -3.5626,1 l -117.0937,62.75 a 8.0110397,8.0110397 0 1 0 7.5625,14.125 l 117.0625,-62.7812 a 8.0008,8.0008 0 0 0 -3.9687,-15.0938 z" id="path5179" style="font-size:medium;font-style:normal;font-variant:normal;font-weight:normal;font-stretch:normal;text-indent:0;text-align:start;text-decoration:none;line-height:normal;letter-spacing:normal;word-spacing:normal;text-transform:none;direction:ltr;block-progression:tb;writing-mode:lr-tb;text-anchor:start;baseline-shift:baseline;color:#000000;fill:#00a1f1;fill-opacity:1;stroke:none;stroke-width:16;marker:none;visibility:visible;display:inline;overflow:visible;enable-background:accumulate;font-family:Sans;-inkscape-font-specification:Sans"/></g></svg>